# xmcd CD database file
# Copyright (C) 1993-1996 Ti Kan
#
# Track frame offsets:
#	150
#	20787
#	36912
#	60112
#	75550
#	87950
#	105287
#	129150
#	149775
#	165612
#	186987
#	208075
#	231312
#
# Disc length: 3350 seconds
#
# Revision: 1
# Processed by: cddbd v1.4b41PL1 Copyright (c) Steve Scherf et al.
# Submitted via: CDValet v3.01 - Copyright (c) 1997 Greg Leichner
#
DISCID=ac0d140d
DTITLE=Butch Mudbone And The Wolfpack - My Love Is Dangerous
DYEAR=1900
DGENRE=
TTITLE0=Monkey On Your Back
TTITLE1=Don't You Lie To Me
TTITLE2=She Got Mad
TTITLE3=Head Above Water
TTITLE4=Song For Zanya
TTITLE5=Ice Water
TTITLE6=Nothin' Seemed To Be Wrong
TTITLE7=Sittin On Top Of The World
TTITLE8=Black and White
TTITLE9=I'll Play The Blues For You
TTITLE10=My Love Is Dangerous
TTITLE11=Big Mountain Blues
TTITLE12=No Regrets
EXTD=
EXTT0=
EXTT1=
EXTT2=
EXTT3=
EXTT4=
EXTT5=
EXTT6=
EXTT7=
EXTT8=
EXTT9=
EXTT10=
EXTT11=
EXTT12=
PLAYORDER=
